<svg width="2136" height="1218" version="1.1" xmlns="http://www.w3.org/2000/svg" id="Tree_0" xmlns:xlink="http://www.w3.org/1999/xlink"><g transform="translate(50.99999999999997,-9.000000000000284) scale(0.8000000000000002)"><path class="link" id="Tree_0_node_11_Tree_0_node_9" d="M2316.962431427749,738.1818181818181L2316.962431427749,676.6666666666666L2441.667668880904,676.6666666666666" style="stroke-width: 6; stroke: grey; fill: none;"/><path class="link" id="Tree_0_node_11_Tree_0_node_10" d="M2316.962431427749,738.1818181818181L2316.962431427749,799.6969696969696L2452.672658833511,799.6969696969696" style="stroke-width: 6; stroke: grey; fill: none;"/><path class="link" id="Tree_0_node_2_Tree_0_node_0" d="M2099.990003567203,123.03030303030303L2099.990003567203,61.51515151515151L2109.866622409473,61.51515151515151" style="stroke-width: 6; stroke: grey; fill: none;"/><path class="link" id="Tree_0_node_2_Tree_0_node_1" d="M2099.990003567203,123.03030303030303L2099.990003567203,184.54545454545453L2109.9385504483794,184.54545454545453" style="stroke-width: 6; stroke: grey; fill: none;"/><path class="link" id="Tree_0_node_4_Tree_0_node_2" d="M2096.717277796983,215.3030303030303L2096.717277796983,123.03030303030303L2099.990003567203,123.03030303030303" style="stroke-width: 6; stroke: grey; fill: none;"/><path class="link" id="Tree_0_node_4_Tree_0_node_3" d="M2096.717277796983,215.3030303030303L2096.717277796983,307.57575757575756L2110.819668924977,307.57575757575756" style="stroke-width: 6; stroke: grey; fill: none;"/><path class="link" id="Tree_0_node_6_Tree_0_node_4" d="M2081.8191827385926,322.95454545454544L2081.8191827385926,215.3030303030303L2096.717277796983,215.3030303030303" style="stroke-width: 6; stroke: grey; fill: none;"/><path class="link" id="Tree_0_node_6_Tree_0_node_5" d="M2081.8191827385926,322.95454545454544L2081.8191827385926,430.60606060606057L2109.3046846055213,430.60606060606057" style="stroke-width: 6; stroke: grey; fill: none;"/><path class="link" id="Tree_0_node_8_Tree_0_node_6" d="M2060.4565551835317,438.2954545454545L2060.4565551835317,322.95454545454544L2081.8191827385926,322.95454545454544" style="stroke-width: 6; stroke: grey; fill: none;"/><path class="link" id="Tree_0_node_8_Tree_0_node_7" d="M2060.4565551835317,438.2954545454545L2060.4565551835317,553.6363636363636L2146.912559447648,553.6363636363636" style="stroke-width: 6; stroke: grey; fill: none;"/><path class="link" id="Tree_0_node_12_Tree_0_node_8" d="M1913.2887905803798,588.2386363636363L1913.2887905803798,438.2954545454545L2060.4565551835317,438.2954545454545" style="stroke-width: 6; stroke: grey; fill: none;"/><path class="link" id="Tree_0_node_12_Tree_0_node_11" d="M1913.2887905803798,588.2386363636363L1913.2887905803798,738.1818181818181L2316.962431427749,738.1818181818181" style="stroke-width: 6; stroke: grey; fill: none;"/><path class="link" id="Tree_0_node_14_Tree_0_node_12" d="M1882.3207728297562,755.4829545454545L1882.3207728297562,588.2386363636363L1913.2887905803798,588.2386363636363" style="stroke-width: 6; stroke: grey; fill: none;"/><path class="link" id="Tree_0_node_14_Tree_0_node_13" d="M1882.3207728297562,755.4829545454545L1882.3207728297562,922.7272727272726L2211.2072352246855,922.7272727272726" style="stroke-width: 6; stroke: grey; fill: none;"/><path class="link" id="Tree_0_node_16_Tree_0_node_14" d="M1648.5186823660335,900.6202651515151L1648.5186823660335,755.4829545454545L1882.3207728297562,755.4829545454545" style="stroke-width: 6; stroke: grey; fill: none;"/><path class="link" id="Tree_0_node_16_Tree_0_node_15" d="M1648.5186823660335,900.6202651515151L1648.5186823660335,1045.7575757575758L2286.72867907429,1045.7575757575758" style="stroke-width: 6; stroke: grey; fill: none;"/><path class="link" id="Tree_0_node_18_Tree_0_node_16" d="M1539.9822686586076,1034.704071969697L1539.9822686586076,900.6202651515151L1648.5186823660335,900.6202651515151" style="stroke-width: 6; stroke: grey; fill: none;"/><path class="link" id="Tree_0_node_18_Tree_0_node_17" d="M1539.9822686586076,1034.704071969697L1539.9822686586076,1168.7878787878788L2220.1757625757687,1168.7878787878788" style="stroke-width: 6; stroke: grey; fill: none;"/><path class="link" id="Tree_0_node_20_Tree_0_node_18" d="M1375.2925340778093,1163.2611268939395L1375.2925340778093,1034.704071969697L1539.9822686586076,1034.704071969697" style="stroke-width: 6; stroke: grey; fill: none;"/><path class="link" id="Tree_0_node_20_Tree_0_node_19" d="M1375.2925340778093,1163.2611268939395L1375.2925340778093,1291.8181818181818L2086,1291.8181818181818" style="stroke-width: 6; stroke: grey; fill: none;"/><path class="link" id="Tree_0_node_21_Tree_0_node_20" d="M-90,1163.2611268939395L-90,1163.2611268939395L1375.2925340778093,1163.2611268939395" style="stroke-width: 6; stroke: grey; fill: none;"/><g class="node" transform="translate(2086,1291.8182373046875)" id="Tree_0_node_19"><circle class="node" r="5"/><rect class="node" y="-5px" x="-5px" width="0px" height="0px"/><text class="node" x="13" dy=".3em" dx="-.3em" text-anchor="start" font-size="36px" style="fill-opacity: 1;">Chicken</text><text class="triangleText" dy=".35em" font-size="15px"/><path class="triangle" d="M0,0L0,0L0,0L0,0"/></g><g class="node" transform="translate(2220.17578125,1168.787841796875)" id="Tree_0_node_17"><circle class="node" r="5"/><rect class="node" y="-5px" x="-5px" width="0px" height="0px"/><text class="node" x="13" dy=".3em" dx="-.3em" text-anchor="start" font-size="36px" style="fill-opacity: 1;">Platypus</text><text class="triangleText" dy=".35em" font-size="15px"/><path class="triangle" d="M0,0L0,0L0,0L0,0"/></g><g class="node" transform="translate(2286.728759765625,1045.757568359375)" id="Tree_0_node_15"><circle class="node" r="5"/><rect class="node" y="-5px" x="-5px" width="0px" height="0px"/><text class="node" x="13" dy=".3em" dx="-.3em" text-anchor="start" font-size="36px" style="fill-opacity: 1;">Opossum</text><text class="triangleText" dy=".35em" font-size="15px"/><path class="triangle" d="M0,0L0,0L0,0L0,0"/></g><g class="node" transform="translate(2211.207275390625,922.727294921875)" id="Tree_0_node_13"><circle class="node" r="5"/><rect class="node" y="-5px" x="-5px" width="0px" height="0px"/><text class="node" x="13" dy=".3em" dx="-.3em" text-anchor="start" font-size="36px" style="fill-opacity: 1;">Cow</text><text class="triangleText" dy=".35em" font-size="15px"/><path class="triangle" d="M0,0L0,0L0,0L0,0"/></g><g class="node" transform="translate(2452.672607421875,799.6969604492188)" id="Tree_0_node_10"><circle class="node" r="5"/><rect class="node" y="-5px" x="-5px" width="0px" height="0px"/><text class="node" x="13" dy=".3em" dx="-.3em" text-anchor="start" font-size="36px" style="fill-opacity: 1;">Rat</text><text class="triangleText" dy=".35em" font-size="15px"/><path class="triangle" d="M0,0L0,0L0,0L0,0"/></g><g class="node" transform="translate(2441.667724609375,676.6666870117188)" id="Tree_0_node_9"><circle class="node" r="5"/><rect class="node" y="-5px" x="-5px" width="0px" height="0px"/><text class="node" x="13" dy=".3em" dx="-.3em" text-anchor="start" font-size="36px" style="fill-opacity: 1;">Mouse</text><text class="triangleText" dy=".35em" font-size="15px"/><path class="triangle" d="M0,0L0,0L0,0L0,0"/></g><g class="node" transform="translate(2316.96240234375,738.1818237304688)" id="Tree_0_node_11"><circle class="node" r="5"/><rect class="node" y="-5px" x="-5px" width="0px" height="0px"/><text class="node" x="-13" dy="-.3em" dx=".3em" text-anchor="end" font-size="36px" style="fill-opacity: 1;">0.269</text><text class="triangleText" dy=".35em" font-size="15px" x="0"/><path class="triangle" d="M0,0L0,0L0,0L0,0"/></g><g class="node" transform="translate(2146.91259765625,553.6363525390625)" id="Tree_0_node_7"><circle class="node" r="5"/><rect class="node" y="-5px" x="-5px" width="0px" height="0px"/><text class="node" x="13" dy=".3em" dx="-.3em" text-anchor="start" font-size="36px" style="fill-opacity: 1;">Rhesus</text><text class="triangleText" dy=".35em" font-size="15px"/><path class="triangle" d="M0,0L0,0L0,0L0,0"/></g><g class="node" transform="translate(2109.3046875,430.6060485839844)" id="Tree_0_node_5"><circle class="node" r="5"/><rect class="node" y="-5px" x="-5px" width="0px" height="0px"/><text class="node" x="13" dy=".3em" dx="-.3em" text-anchor="start" font-size="36px" style="fill-opacity: 1;">Orangutan</text><text class="triangleText" dy=".35em" font-size="15px"/><path class="triangle" d="M0,0L0,0L0,0L0,0"/></g><g class="node" transform="translate(2110.819580078125,307.57574462890625)" id="Tree_0_node_3"><circle class="node" r="5"/><rect class="node" y="-5px" x="-5px" width="0px" height="0px"/><text class="node" x="13" dy=".3em" dx="-.3em" text-anchor="start" font-size="36px" style="fill-opacity: 1;">Gorilla</text><text class="triangleText" dy=".35em" font-size="15px"/><path class="triangle" d="M0,0L0,0L0,0L0,0"/></g><g class="node" transform="translate(2109.9384765625,184.5454559326172)" id="Tree_0_node_1"><circle class="node" r="5"/><rect class="node" y="-5px" x="-5px" width="0px" height="0px"/><text class="node" x="13" dy=".3em" dx="-.3em" text-anchor="start" font-size="36px" style="fill-opacity: 1;">Chimp</text><text class="triangleText" dy=".35em" font-size="15px"/><path class="triangle" d="M0,0L0,0L0,0L0,0"/></g><g class="node" transform="translate(2109.86669921875,61.51515197753906)" id="Tree_0_node_0"><circle class="node" r="5"/><rect class="node" y="-5px" x="-5px" width="0px" height="0px"/><text class="node" x="13" dy=".3em" dx="-.3em" text-anchor="start" font-size="36px" style="fill-opacity: 1;">Human</text><text class="triangleText" dy=".35em" font-size="15px"/><path class="triangle" d="M0,0L0,0L0,0L0,0"/></g><g class="node" transform="translate(2099.989990234375,123.03030395507812)" id="Tree_0_node_2"><circle class="node" r="5"/><rect class="node" y="-5px" x="-5px" width="0px" height="0px"/><text class="node" x="-13" dy="-.3em" dx=".3em" text-anchor="end" font-size="36px" style="fill-opacity: 1;">0.002</text><text class="triangleText" dy=".35em" font-size="15px" x="0"/><path class="triangle" d="M0,0L0,0L0,0L0,0"/></g><g class="node" transform="translate(2096.71728515625,215.3030242919922)" id="Tree_0_node_4"><circle class="node" r="5"/><rect class="node" y="-5px" x="-5px" width="0px" height="0px"/><text class="node" x="-13" dy="-.3em" dx=".3em" text-anchor="end" font-size="36px" style="fill-opacity: 1;">0.010</text><text class="triangleText" dy=".35em" font-size="15px" x="0"/><path class="triangle" d="M0,0L0,0L0,0L0,0"/></g><g class="node" transform="translate(2081.819091796875,322.9545593261719)" id="Tree_0_node_6"><circle class="node" r="5"/><rect class="node" y="-5px" x="-5px" width="0px" height="0px"/><text class="node" x="-13" dy="-.3em" dx=".3em" text-anchor="end" font-size="36px" style="fill-opacity: 1;">0.014</text><text class="triangleText" dy=".35em" font-size="15px" x="0"/><path class="triangle" d="M0,0L0,0L0,0L0,0"/></g><g class="node" transform="translate(2060.45654296875,438.2954406738281)" id="Tree_0_node_8"><circle class="node" r="5"/><rect class="node" y="-5px" x="-5px" width="0px" height="0px"/><text class="node" x="-13" dy="-.3em" dx=".3em" text-anchor="end" font-size="36px" style="fill-opacity: 1;">0.098</text><text class="triangleText" dy=".35em" font-size="15px" x="0"/><path class="triangle" d="M0,0L0,0L0,0L0,0"/></g><g class="node" transform="translate(1913.288818359375,588.2386474609375)" id="Tree_0_node_12"><circle class="node" r="5"/><rect class="node" y="-5px" x="-5px" width="0px" height="0px"/><text class="node" x="-13" dy="-.3em" dx=".3em" text-anchor="end" font-size="36px" style="fill-opacity: 1;">0.021</text><text class="triangleText" dy=".35em" font-size="15px" x="0"/><path class="triangle" d="M0,0L0,0L0,0L0,0"/></g><g class="node" transform="translate(1882.32080078125,755.4829711914062)" id="Tree_0_node_14"><circle class="node" r="5"/><rect class="node" y="-5px" x="-5px" width="0px" height="0px"/><text class="node" x="-13" dy="-.3em" dx=".3em" text-anchor="end" font-size="36px" style="fill-opacity: 1;">0.156</text><text class="triangleText" dy=".35em" font-size="15px" x="0"/><path class="triangle" d="M0,0L0,0L0,0L0,0"/></g><g class="node" transform="translate(1648.5186767578125,900.6202392578125)" id="Tree_0_node_16"><circle class="node" r="5"/><rect class="node" y="-5px" x="-5px" width="0px" height="0px"/><text class="node" x="-13" dy="-.3em" dx=".3em" text-anchor="end" font-size="36px" style="fill-opacity: 1;">0.072</text><text class="triangleText" dy=".35em" font-size="15px" x="0"/><path class="triangle" d="M0,0L0,0L0,0L0,0"/></g><g class="node" transform="translate(1539.9822998046875,1034.7041015625)" id="Tree_0_node_18"><circle class="node" r="5"/><rect class="node" y="-5px" x="-5px" width="0px" height="0px"/><text class="node" x="-13" dy="-.3em" dx=".3em" text-anchor="end" font-size="36px" style="fill-opacity: 1;">0.110</text><text class="triangleText" dy=".35em" font-size="15px" x="0"/><path class="triangle" d="M0,0L0,0L0,0L0,0"/></g><g class="node" transform="translate(1375.29248046875,1163.2611083984375)" id="Tree_0_node_20"><circle class="node" r="5"/><rect class="node" y="-5px" x="-5px" width="0px" height="0px"/><text class="node" x="-13" dy="-.3em" dx=".3em" text-anchor="end" font-size="36px" style="fill-opacity: 1;">0.978</text><text class="triangleText" dy=".35em" font-size="15px" x="0"/><path class="triangle" d="M0,0L0,0L0,0L0,0"/></g><g class="node" transform="translate(-90,1163.2611083984375)" id="Tree_0_node_21"><circle class="node" r="5"/><rect class="node" y="-5px" x="-5px" width="0px" height="0px"/><text class="node" x="-13" dy="-.3em" dx=".3em" text-anchor="end" font-size="36px" style="fill-opacity: 1;">0.100</text><text class="triangleText" dy=".35em" font-size="15px" x="0"/><path class="triangle" d="M0,0L0,0L0,0L0,0"/></g></g><g transform="translate(100,1118)"><path d="M10,20L544,20" stroke-width="1" stroke="black"/></g><text transform="translate(100,1118)" x="277" y="36" font-family="sans-serif" font-size="14px" fill="black" text-anchor="middle">0.45</text><g><svg id="exportLogo" data-name="Layer 1" xmlns="http://www.w3.org/2000/svg" viewBox="0 0 107.35 22.23" width="75px" x="20" y="-553.1212463378906" style="position: absolute; bottom: 5px; right: 27px;"><defs><style>.cls-1{fill:#808285;}.cls-2{fill:#939598;}.cls-3{fill:#bcbec0;}</style></defs><path class="cls-1" d="M17.17,22.23V5.72H21a6.55,6.55,0,0,1,4.53,1.45,5.16,5.16,0,0,1,1.62,4.05,5.58,5.58,0,0,1-1.52,4,5.16,5.16,0,0,1-3.88,1.58,6.81,6.81,0,0,1-2.31-.46v5.84H17.17ZM20.91,7.74H19.38v6.72a4.51,4.51,0,0,0,2.09.51A3.21,3.21,0,0,0,24,13.92a3.88,3.88,0,0,0,1-2.72,3.82,3.82,0,0,0-.46-1.89,2.76,2.76,0,0,0-1.24-1.19A5.54,5.54,0,0,0,20.91,7.74Z"/><path class="cls-1" d="M29.43,0.06H31.6v7.1A4.18,4.18,0,0,1,35,5.51a3.6,3.6,0,0,1,2,.55,3.31,3.31,0,0,1,1.29,1.51,7.46,7.46,0,0,1,.42,2.86v6.22H36.47V9.89A3,3,0,0,0,35.88,8a1.9,1.9,0,0,0-1.55-.73A2.62,2.62,0,0,0,33,7.6,6.1,6.1,0,0,0,31.6,8.83v7.83H29.43V0.06Z"/><path class="cls-1" d="M47.5,5.72h2.43l-7.74,16.5H39.77l3.71-7.92L39.26,5.72h2.46l3,6.17Z"/><path class="cls-1" d="M51.49,0.06h2.16v16.6H51.49V0.06Z"/><path class="cls-1" d="M62,5.7a5.7,5.7,0,0,1,4.15,1.61,5.41,5.41,0,0,1,1.65,4,5.14,5.14,0,0,1-1.68,3.93,5.94,5.94,0,0,1-4.22,1.56,5.7,5.7,0,0,1-4.11-1.59,5.26,5.26,0,0,1-1.65-4,5.31,5.31,0,0,1,1.67-4A5.82,5.82,0,0,1,62,5.7ZM61.89,7.65a3.42,3.42,0,0,0-2.55,1,3.57,3.57,0,0,0-1,2.6,3.41,3.41,0,0,0,1,2.56,3.61,3.61,0,0,0,2.63,1,3.55,3.55,0,0,0,2.61-1,3.46,3.46,0,0,0,1-2.57,3.43,3.43,0,0,0-1.06-2.58A3.68,3.68,0,0,0,61.89,7.65Z"/><path class="cls-1" d="M71.62,14.29v2.36H70V14.29h1.58Z"/><path class="cls-1" d="M75.85,0.06v2H74.67v-2h1.18Zm0,5.67V16.65H74.67V5.72h1.18Z"/><path class="cls-1" d="M84.14,5.51a5.3,5.3,0,0,1,4,1.63,5.59,5.59,0,0,1,1.59,4.06,5.56,5.56,0,0,1-1.59,4,5.67,5.67,0,0,1-7.94,0,5.54,5.54,0,0,1-1.6-4,5.57,5.57,0,0,1,1.6-4.06A5.34,5.34,0,0,1,84.14,5.51Zm0,10.22a4.09,4.09,0,0,0,3.08-1.29,4.49,4.49,0,0,0,1.24-3.24A4.53,4.53,0,0,0,87.21,8a4.07,4.07,0,0,0-3.07-1.31A4.11,4.11,0,0,0,81,7.95,4.52,4.52,0,0,0,79.8,11.2,4.48,4.48,0,0,0,81,14.44,4.12,4.12,0,0,0,84.14,15.73Z"/><polygon class="cls-2" points="101.29 12.33 94.93 12.33 94.93 10.91 99.87 10.91 99.87 6.46 94.93 6.46 94.93 5.04 101.29 5.04 101.29 12.33"/><polygon class="cls-2" points="106.29 17.36 94.72 17.36 94.72 15.94 104.87 15.94 104.9 5.41 102.74 5.41 102.74 3.99 106.32 3.99 106.29 17.36"/><polygon class="cls-2" points="103.45 4.7 102.03 4.7 102.03 1.42 95.51 1.42 95.51 0 103.45 0 103.45 4.7"/><polygon class="cls-3" points="103.45 9.39 100.65 9.39 100.65 7.97 102.03 7.97 102.03 4.7 103.45 4.7 103.45 9.39"/><polygon class="cls-2" points="11.86 7.46 5.7 7.46 5.7 0.23 11.86 0.23 11.86 1.65 7.12 1.65 7.12 6.04 11.86 6.04 11.86 7.46"/><polygon class="cls-2" points="12.68 17.26 0.04 17.26 0 7.08 3.51 7.08 3.51 8.49 1.43 8.49 1.45 15.84 12.68 15.84 12.68 17.26"/><polygon class="cls-2" points="10.49 12.44 2.84 12.44 2.84 7.79 4.26 7.79 4.26 11.02 10.49 11.02 10.49 12.44"/><polygon class="cls-3" points="4.26 7.79 2.84 7.79 2.84 3.13 6.41 3.13 6.41 4.55 4.26 4.55 4.26 7.79"/></svg></g></svg>